<?xml version="1.0" encoding="UTF-8" standalone="no"?>
<svg
  xmlns:dc="http://purl.org/dc/elements/1.1/"
  xmlns:cc="http://creativecommons.org/ns#"
  xmlns:rdf="http://www.w3.org/1999/02/22-rdf-syntax-ns#"
  xmlns:svg="http://www.w3.org/2000/svg"
  xmlns="http://www.w3.org/2000/svg"
  xmlns:sodipodi="http://sodipodi.sourceforge.net/DTD/sodipodi-0.dtd"
  xmlns:inkscape="http://www.inkscape.org/namespaces/inkscape"
  width="643.4"
  height="315.0"
  id="svg4200"
  version="1.1"
  inkscape:version="0.91 r13725"
  sodipodi:docname="teapot_simple_from_python.svg">
  <path
    stroke="black"
    fill="transparent"
    style="fill:none"
    d="M 300.0, 315.0 C 442.5, 315.0 450.0, 307.5 450.0, 300.0 450.0, 294.0038138630664 481.95933172333787, 278.41982820913137 494.77556801664247, 249.41536100169216 601.5635831380717, 217.22467686702674 545.8593764586592, 110.05859314222536 630.0, 75.0 639.0, 71.24999999999999 643.2, 68.69999999999999 643.4, 67.70999999999998 590.0, 67.49999999999999 580.0, 67.49999999999999 570.0, 75.0 533.4269618344593, 102.42977862415543 555.3733601977102, 161.20925538873493 490.60905892448454, 171.07967083398506 481.07294561440915, 140.25318579025924 465.5364728072046, 107.62659289512962 450.0, 75.0 446.875, 68.43749999999997 442.81249999999994, 65.15624999999999 440.3125, 65.15624999999999 430.82892206977795, 65.15625000045193 421.34534413955595, 65.15625000090388 411.8617662093339, 65.15625000135587 384.49397777067264, 58.7882184148786 334.31544411556735, 55.73658308667553 320.0, 44.99999999999997 300.0, 29.999999999999982 380.0, -0.0 300.0, -0.0 220.00000000000003, -0.0 300.0, 29.999999999999982 280.0, 44.99999999999997 265.68455588443265, 55.73658308667553 215.50602222932733, 58.7882184148786 188.1382337906661, 65.15625000135587 178.65465586044408, 65.15625000090388 169.17107793022203, 65.15625000045193 159.6875, 65.15624999999999 157.1875, 65.15624999999999 153.125, 68.43749999999997 150.0, 75.0 147.61791859693733, 80.00237094643165 145.23583719387466, 85.00474189286327 142.87538246703554, 90.00062483642783 47.62513008514526, 90.0260012846187 0.0, 91.08169210399399 0.0, 135.0 0.0, 179.46751549555927 34.17659145786334, 220.27325333491893 107.35437154894845, 253.79876563656003 121.2539129984743, 280.0026348062404 150.0, 294.3132304533491 150.0, 300.0 150.0, 307.5 157.5, 315.0 300.0, 315.0 z" />
  <path
    stroke="black"
    fill="transparent"
    style="fill:none"
    d="M 132.43395678206147, 112.50110361168599 C 114.48752760250254, 152.14126881678553 100.0, 190.74376354876813 100.0, 225.0 50.0, 202.5 29.999999999999982, 157.5 29.999999999999982, 135.0 29.999999999999982, 113.32362101380609 67.12516787777649, 112.53014895886149 132.43395686838778, 112.50110361404721 z" />
</svg>